<svg width="599" height="337" viewBox="0 0 599 337" fill="none" xmlns="http://www.w3.org/2000/svg">
<rect x="91.5" y="63.5" width="416" height="209" rx="3.5" stroke="white"/>
<rect x="158.5" y="63.5" width="282" height="209" stroke="white"/>
<rect x="204.5" y="63.5" width="190" height="209" stroke="white"/>
<rect x="124.5" y="63.5" width="350" height="209" stroke="white"/>
<path d="M91.59 49.08C91.6433 48.6267 91.78 48.2233 92 47.87C92.22 47.5167 92.5167 47.24 92.89 47.04C93.2633 46.84 93.6867 46.74 94.16 46.74C94.6067 46.74 95.01 46.83 95.37 47.01C95.73 47.19 96.01 47.44 96.21 47.76C96.4167 48.08 96.52 48.4367 96.52 48.83C96.52 49.3033 96.3633 49.7267 96.05 50.1C95.7433 50.4733 95.3033 50.8267 94.73 51.16C94.3233 51.3867 93.91 51.6733 93.49 52.02C93.0767 52.3667 92.8533 52.6867 92.82 52.98H96.56V54H91.46C91.46 53.3867 91.56 52.8667 91.76 52.44C91.9667 52.0133 92.2233 51.6633 92.53 51.39C92.8433 51.11 93.26 50.8033 93.78 50.47C93.8933 50.3967 94.0067 50.3267 94.12 50.26C94.2133 50.1933 94.31 50.13 94.41 50.07C94.7233 49.8567 94.9633 49.65 95.13 49.45C95.2967 49.25 95.38 49.04 95.38 48.82C95.38 48.6133 95.3267 48.4333 95.22 48.28C95.12 48.12 94.9767 47.9933 94.79 47.9C94.6033 47.8067 94.3933 47.76 94.16 47.76C93.7733 47.76 93.4533 47.8833 93.2 48.13C92.9533 48.3767 92.7967 48.7167 92.73 49.15L91.59 49.08ZM102.466 48.7L100.636 51.29L102.556 54H101.276L99.9961 52.12L98.7161 54H97.4261L99.3661 51.28L97.5261 48.7H98.8161L99.9961 50.45L101.176 48.7H102.466ZM108.432 53.06V54H103.942V53.06H108.432ZM105.762 54V48.43C105.762 48.2233 105.716 48.0733 105.622 47.98C105.529 47.88 105.386 47.83 105.192 47.83H103.942V46.9H105.192C105.719 46.9 106.119 47.03 106.392 47.29C106.672 47.55 106.812 47.93 106.812 48.43V54H105.762Z" fill="white"/>
<path d="M129.47 48.7L127.64 51.29L129.56 54H128.28L127 52.12L125.72 54H124.43L126.37 51.28L124.53 48.7H125.82L127 50.45L128.18 48.7H129.47ZM135.436 53.06V54H130.946V53.06H135.436ZM132.766 54V48.43C132.766 48.2233 132.719 48.0733 132.626 47.98C132.533 47.88 132.389 47.83 132.196 47.83H130.946V46.9H132.196C132.723 46.9 133.123 47.03 133.396 47.29C133.676 47.55 133.816 47.93 133.816 48.43V54H132.766Z" fill="white"/>
<path d="M163.44 53.06V54H158.95V53.06H163.44ZM160.77 54V48.43C160.77 48.2233 160.723 48.0733 160.63 47.98C160.537 47.88 160.393 47.83 160.2 47.83H158.95V46.9H160.2C160.727 46.9 161.127 47.03 161.4 47.29C161.68 47.55 161.82 47.93 161.82 48.43V54H160.77ZM166.866 53.72C166.413 53.72 166.013 53.6133 165.666 53.4C165.326 53.18 165.063 52.88 164.876 52.5C164.689 52.12 164.596 51.6867 164.596 51.2C164.596 50.6867 164.689 50.2333 164.876 49.84C165.069 49.44 165.336 49.13 165.676 48.91C166.023 48.69 166.419 48.58 166.866 48.58C167.213 48.58 167.513 48.6633 167.766 48.83C168.026 48.99 168.219 49.2167 168.346 49.51L168.356 48.7H169.366V53.37C169.359 54.11 169.149 54.67 168.736 55.05C168.323 55.43 167.749 55.62 167.016 55.62C166.623 55.62 166.269 55.5567 165.956 55.43C165.649 55.3033 165.393 55.1233 165.186 54.89C164.979 54.6633 164.836 54.3967 164.756 54.09L165.856 54.02C165.956 54.24 166.103 54.41 166.296 54.53C166.496 54.65 166.736 54.71 167.016 54.71C167.423 54.71 167.739 54.6133 167.966 54.42C168.193 54.2267 168.306 53.95 168.306 53.59V52.86C168.166 53.1333 167.963 53.3467 167.696 53.5C167.436 53.6467 167.159 53.72 166.866 53.72ZM165.706 51.19C165.706 51.5167 165.759 51.8033 165.866 52.05C165.973 52.2967 166.126 52.49 166.326 52.63C166.526 52.77 166.763 52.84 167.036 52.84C167.296 52.84 167.523 52.77 167.716 52.63C167.916 52.49 168.069 52.2967 168.176 52.05C168.289 51.8033 168.346 51.5167 168.346 51.19C168.353 50.8633 168.303 50.5767 168.196 50.33C168.089 50.0767 167.936 49.88 167.736 49.74C167.543 49.6 167.309 49.53 167.036 49.53C166.763 49.53 166.526 49.6 166.326 49.74C166.126 49.88 165.973 50.0767 165.866 50.33C165.759 50.5767 165.706 50.8633 165.706 51.19Z" fill="white"/>
<path d="M205.32 48.7L205.35 49.42C205.45 49.1467 205.59 48.94 205.77 48.8C205.95 48.6533 206.167 48.58 206.42 48.58C206.653 48.58 206.847 48.6567 207 48.81C207.153 48.9633 207.273 49.2033 207.36 49.53C207.453 49.23 207.597 48.9967 207.79 48.83C207.983 48.6633 208.21 48.58 208.47 48.58C208.877 48.58 209.177 48.7567 209.37 49.11C209.563 49.4567 209.66 49.9967 209.66 50.73V54H208.62V50.73C208.62 50.2633 208.583 49.9333 208.51 49.74C208.443 49.5467 208.323 49.45 208.15 49.45C208.017 49.45 207.903 49.5 207.81 49.6C207.723 49.6933 207.657 49.8367 207.61 50.03C207.563 50.2167 207.54 50.45 207.54 50.73V54H206.5V50.73C206.5 50.2633 206.46 49.9333 206.38 49.74C206.307 49.5467 206.173 49.45 205.98 49.45C205.867 49.45 205.767 49.5 205.68 49.6C205.6 49.6933 205.537 49.8367 205.49 50.03C205.45 50.2233 205.43 50.4567 205.43 50.73V54H204.39V48.7H205.32ZM214.186 46.9H215.246V54H214.256L214.226 53.25C214.079 53.53 213.869 53.7467 213.596 53.9C213.329 54.0467 213.006 54.12 212.626 54.12C212.159 54.12 211.763 53.9967 211.436 53.75C211.109 53.5033 210.863 53.17 210.696 52.75C210.536 52.33 210.456 51.8633 210.456 51.35C210.456 50.8367 210.536 50.37 210.696 49.95C210.863 49.53 211.109 49.1967 211.436 48.95C211.763 48.7033 212.159 48.58 212.626 48.58C212.993 48.58 213.303 48.65 213.556 48.79C213.816 48.93 214.026 49.1367 214.186 49.41V46.9ZM214.126 52.25C214.226 51.9767 214.276 51.6767 214.276 51.35C214.276 51.01 214.226 50.7033 214.126 50.43C214.033 50.15 213.883 49.9267 213.676 49.76C213.476 49.5933 213.226 49.51 212.926 49.51C212.473 49.51 212.133 49.6833 211.906 50.03C211.679 50.3767 211.566 50.8167 211.566 51.35C211.566 51.8633 211.679 52.2933 211.906 52.64C212.133 52.98 212.473 53.15 212.926 53.15C213.226 53.15 213.476 53.07 213.676 52.91C213.883 52.7433 214.033 52.5233 214.126 52.25Z" fill="white"/>
</svg>
