<svg width="189" height="59" viewBox="0 0 189 59" fill="none" xmlns="http://www.w3.org/2000/svg">
<path d="M65.5966 14L62.3125 2.36364H64.5795L66.6761 10.9148H66.7841L69.0227 2.36364H71.0852L73.3295 10.9205H73.4318L75.5284 2.36364H77.7955L74.5114 14H72.4318L70.1023 5.83523H70.0114L67.6761 14H65.5966ZM78.5262 14V5.27273H80.583V14H78.5262ZM79.5603 4.03409C79.2345 4.03409 78.9542 3.92614 78.7194 3.71023C78.4845 3.49053 78.3671 3.22727 78.3671 2.92045C78.3671 2.60985 78.4845 2.34659 78.7194 2.13068C78.9542 1.91098 79.2345 1.80114 79.5603 1.80114C79.8898 1.80114 80.1701 1.91098 80.4012 2.13068C80.636 2.34659 80.7535 2.60985 80.7535 2.92045C80.7535 3.22727 80.636 3.49053 80.4012 3.71023C80.1701 3.92614 79.8898 4.03409 79.5603 4.03409ZM86.416 5.27273V6.86364H81.399V5.27273H86.416ZM82.6376 3.18182H84.6944V11.375C84.6944 11.6515 84.7361 11.8636 84.8194 12.0114C84.9066 12.1553 85.0202 12.2538 85.1603 12.3068C85.3005 12.3598 85.4558 12.3864 85.6262 12.3864C85.755 12.3864 85.8725 12.3769 85.9785 12.358C86.0884 12.339 86.1717 12.322 86.2285 12.3068L86.5751 13.9148C86.4653 13.9527 86.3081 13.9943 86.1035 14.0398C85.9028 14.0852 85.6566 14.1117 85.3649 14.1193C84.8497 14.1345 84.3857 14.0568 83.9728 13.8864C83.56 13.7121 83.2323 13.4432 82.9899 13.0795C82.7512 12.7159 82.6338 12.2614 82.6376 11.7159V3.18182ZM89.7405 8.88636V14H87.6837V2.36364H89.6951V6.75568H89.7973C90.0019 6.26326 90.3182 5.875 90.7462 5.59091C91.178 5.30303 91.7273 5.15909 92.3939 5.15909C93 5.15909 93.5284 5.28598 93.9791 5.53977C94.4299 5.79356 94.7784 6.16477 95.0246 6.65341C95.2746 7.14205 95.3996 7.73864 95.3996 8.44318V14H93.3428V8.76136C93.3428 8.17424 93.1913 7.7178 92.8882 7.39205C92.589 7.0625 92.1685 6.89773 91.6269 6.89773C91.2632 6.89773 90.9375 6.97727 90.6496 7.13636C90.3655 7.29167 90.142 7.51705 89.9791 7.8125C89.8201 8.10795 89.7405 8.46591 89.7405 8.88636ZM99.7645 4.13068V2.36364H109.049V4.13068H105.452V14H103.361V4.13068H99.7645ZM111.431 14.1761C110.878 14.1761 110.38 14.0777 109.937 13.8807C109.498 13.6799 109.149 13.3845 108.892 12.9943C108.638 12.6042 108.511 12.1231 108.511 11.5511C108.511 11.0587 108.602 10.6515 108.784 10.3295C108.965 10.0076 109.214 9.75 109.528 9.55682C109.842 9.36364 110.196 9.2178 110.59 9.11932C110.988 9.01705 111.399 8.94318 111.823 8.89773C112.335 8.8447 112.749 8.79735 113.068 8.75568C113.386 8.71023 113.617 8.64205 113.761 8.55114C113.909 8.45644 113.982 8.31061 113.982 8.11364V8.07955C113.982 7.65152 113.856 7.32008 113.602 7.08523C113.348 6.85038 112.982 6.73295 112.505 6.73295C112.001 6.73295 111.602 6.8428 111.306 7.0625C111.015 7.2822 110.818 7.54167 110.715 7.84091L108.795 7.56818C108.946 7.03788 109.196 6.5947 109.545 6.23864C109.893 5.87879 110.32 5.60985 110.823 5.43182C111.327 5.25 111.884 5.15909 112.494 5.15909C112.914 5.15909 113.333 5.20833 113.749 5.30682C114.166 5.4053 114.547 5.56818 114.892 5.79545C115.236 6.01894 115.513 6.32386 115.721 6.71023C115.933 7.09659 116.039 7.57955 116.039 8.15909V14H114.062V12.8011H113.994C113.869 13.0436 113.693 13.2708 113.465 13.483C113.242 13.6913 112.96 13.8598 112.619 13.9886C112.282 14.1136 111.886 14.1761 111.431 14.1761ZM111.965 12.6648C112.378 12.6648 112.736 12.5833 113.039 12.4205C113.342 12.2538 113.575 12.0341 113.738 11.7614C113.905 11.4886 113.988 11.1913 113.988 10.8693V9.84091C113.924 9.89394 113.814 9.94318 113.659 9.98864C113.507 10.0341 113.337 10.0739 113.147 10.108C112.958 10.142 112.77 10.1723 112.585 10.1989C112.399 10.2254 112.238 10.2481 112.102 10.267C111.795 10.3087 111.52 10.3769 111.278 10.4716C111.035 10.5663 110.844 10.6989 110.704 10.8693C110.564 11.036 110.494 11.2519 110.494 11.517C110.494 11.8958 110.632 12.1818 110.909 12.375C111.185 12.5682 111.537 12.6648 111.965 12.6648ZM117.467 14V5.27273H119.524V14H117.467ZM118.502 4.03409C118.176 4.03409 117.895 3.92614 117.661 3.71023C117.426 3.49053 117.308 3.22727 117.308 2.92045C117.308 2.60985 117.426 2.34659 117.661 2.13068C117.895 1.91098 118.176 1.80114 118.502 1.80114C118.831 1.80114 119.111 1.91098 119.342 2.13068C119.577 2.34659 119.695 2.60985 119.695 2.92045C119.695 3.22727 119.577 3.49053 119.342 3.71023C119.111 3.92614 118.831 4.03409 118.502 4.03409ZM123.056 2.36364V14H120.999V2.36364H123.056ZM126.332 14L123.866 5.27273H125.963L127.497 11.4091H127.577L129.145 5.27273H131.219L132.787 11.375H132.872L134.383 5.27273H136.486L134.014 14H131.872L130.236 8.10227H130.116L128.48 14H126.332ZM137.282 14V5.27273H139.339V14H137.282ZM138.316 4.03409C137.99 4.03409 137.71 3.92614 137.475 3.71023C137.24 3.49053 137.123 3.22727 137.123 2.92045C137.123 2.60985 137.24 2.34659 137.475 2.13068C137.71 1.91098 137.99 1.80114 138.316 1.80114C138.645 1.80114 138.926 1.91098 139.157 2.13068C139.392 2.34659 139.509 2.60985 139.509 2.92045C139.509 3.22727 139.392 3.49053 139.157 3.71023C138.926 3.92614 138.645 4.03409 138.316 4.03409ZM142.871 8.88636V14H140.814V5.27273H142.78V6.75568H142.882C143.083 6.26705 143.403 5.87879 143.842 5.59091C144.285 5.30303 144.833 5.15909 145.484 5.15909C146.086 5.15909 146.611 5.28788 147.058 5.54545C147.509 5.80303 147.857 6.17614 148.103 6.66477C148.353 7.15341 148.477 7.74621 148.473 8.44318V14H146.416V8.76136C146.416 8.17803 146.264 7.72159 145.961 7.39205C145.662 7.0625 145.247 6.89773 144.717 6.89773C144.357 6.89773 144.037 6.97727 143.757 7.13636C143.48 7.29167 143.263 7.51705 143.103 7.8125C142.948 8.10795 142.871 8.46591 142.871 8.88636ZM153.162 14.1534C152.477 14.1534 151.863 13.9773 151.321 13.625C150.78 13.2727 150.352 12.7614 150.037 12.0909C149.723 11.4205 149.566 10.6061 149.566 9.64773C149.566 8.67803 149.725 7.85985 150.043 7.19318C150.365 6.52273 150.799 6.01705 151.344 5.67614C151.89 5.33144 152.498 5.15909 153.168 5.15909C153.679 5.15909 154.1 5.24621 154.429 5.42045C154.759 5.59091 155.02 5.79735 155.213 6.03977C155.407 6.27841 155.556 6.50379 155.662 6.71591H155.748V2.36364H157.81V14H155.787V12.625H155.662C155.556 12.8371 155.403 13.0625 155.202 13.3011C155.001 13.536 154.736 13.7367 154.407 13.9034C154.077 14.0701 153.662 14.1534 153.162 14.1534ZM153.736 12.4659C154.172 12.4659 154.543 12.3485 154.85 12.1136C155.157 11.875 155.39 11.5436 155.549 11.1193C155.708 10.6951 155.787 10.2008 155.787 9.63636C155.787 9.07197 155.708 8.58144 155.549 8.16477C155.393 7.74811 155.162 7.42424 154.856 7.19318C154.552 6.96212 154.179 6.84659 153.736 6.84659C153.278 6.84659 152.895 6.96591 152.588 7.20455C152.282 7.44318 152.051 7.77273 151.895 8.19318C151.74 8.61364 151.662 9.0947 151.662 9.63636C151.662 10.1818 151.74 10.6686 151.895 11.0966C152.054 11.5208 152.287 11.8561 152.594 12.1023C152.905 12.3447 153.285 12.4659 153.736 12.4659ZM72.9432 52.3835C70.983 52.3835 69.2997 51.9531 67.8935 51.0923C66.4957 50.2315 65.4176 49.0426 64.6591 47.5256C63.9091 46 63.5341 44.2443 63.5341 42.2585C63.5341 40.2642 63.9176 38.5043 64.6847 36.9787C65.4517 35.4446 66.5341 34.2514 67.9318 33.3991C69.3381 32.5384 71 32.108 72.9176 32.108C74.5114 32.108 75.9219 32.402 77.1491 32.9901C78.3849 33.5696 79.3693 34.392 80.1023 35.4574C80.8352 36.5142 81.2528 37.75 81.3551 39.1648H76.9318C76.7528 38.2187 76.3267 37.4304 75.6534 36.7997C74.9886 36.1605 74.098 35.8409 72.9815 35.8409C72.0355 35.8409 71.2045 36.0966 70.4886 36.608C69.7727 37.1108 69.2145 37.8352 68.8139 38.7812C68.4219 39.7273 68.2259 40.8608 68.2259 42.1818C68.2259 43.5199 68.4219 44.6705 68.8139 45.6335C69.206 46.5881 69.7557 47.3253 70.4631 47.8452C71.179 48.3565 72.0185 48.6122 72.9815 48.6122C73.6634 48.6122 74.2727 48.4844 74.8097 48.2287C75.3551 47.9645 75.8111 47.5852 76.1776 47.0909C76.544 46.5966 76.7955 45.9957 76.9318 45.2884H81.3551C81.2443 46.6776 80.8352 47.9091 80.1278 48.983C79.4205 50.0483 78.4574 50.8835 77.2386 51.4886C76.0199 52.0852 74.5881 52.3835 72.9432 52.3835ZM92.2805 52.3835C90.3629 52.3835 88.701 51.9616 87.2947 51.1179C85.8885 50.2741 84.7976 49.0937 84.022 47.5767C83.255 46.0597 82.8714 44.2869 82.8714 42.2585C82.8714 40.2301 83.255 38.4531 84.022 36.9276C84.7976 35.402 85.8885 34.2173 87.2947 33.3736C88.701 32.5298 90.3629 32.108 92.2805 32.108C94.1981 32.108 95.8601 32.5298 97.2663 33.3736C98.6726 34.2173 99.7592 35.402 100.526 36.9276C101.302 38.4531 101.69 40.2301 101.69 42.2585C101.69 44.2869 101.302 46.0597 100.526 47.5767C99.7592 49.0937 98.6726 50.2741 97.2663 51.1179C95.8601 51.9616 94.1981 52.3835 92.2805 52.3835ZM92.3061 48.6761C93.3459 48.6761 94.2152 48.3906 94.914 47.8196C95.6129 47.2401 96.1328 46.4645 96.4737 45.4929C96.8231 44.5213 96.9979 43.4389 96.9979 42.2457C96.9979 41.044 96.8231 39.9574 96.4737 38.9858C96.1328 38.0057 95.6129 37.2259 94.914 36.6463C94.2152 36.0668 93.3459 35.777 92.3061 35.777C91.2408 35.777 90.3544 36.0668 89.647 36.6463C88.9481 37.2259 88.424 38.0057 88.0746 38.9858C87.7337 39.9574 87.5632 41.044 87.5632 42.2457C87.5632 43.4389 87.7337 44.5213 88.0746 45.4929C88.424 46.4645 88.9481 47.2401 89.647 47.8196C90.3544 48.3906 91.2408 48.6761 92.3061 48.6761ZM112.743 52.3835C110.825 52.3835 109.163 51.9616 107.757 51.1179C106.351 50.2741 105.26 49.0937 104.484 47.5767C103.717 46.0597 103.334 44.2869 103.334 42.2585C103.334 40.2301 103.717 38.4531 104.484 36.9276C105.26 35.402 106.351 34.2173 107.757 33.3736C109.163 32.5298 110.825 32.108 112.743 32.108C114.66 32.108 116.322 32.5298 117.729 33.3736C119.135 34.2173 120.222 35.402 120.989 36.9276C121.764 38.4531 122.152 40.2301 122.152 42.2585C122.152 44.2869 121.764 46.0597 120.989 47.5767C120.222 49.0937 119.135 50.2741 117.729 51.1179C116.322 51.9616 114.66 52.3835 112.743 52.3835ZM112.768 48.6761C113.808 48.6761 114.678 48.3906 115.376 47.8196C116.075 47.2401 116.595 46.4645 116.936 45.4929C117.285 44.5213 117.46 43.4389 117.46 42.2457C117.46 41.044 117.285 39.9574 116.936 38.9858C116.595 38.0057 116.075 37.2259 115.376 36.6463C114.678 36.0668 113.808 35.777 112.768 35.777C111.703 35.777 110.817 36.0668 110.109 36.6463C109.41 37.2259 108.886 38.0057 108.537 38.9858C108.196 39.9574 108.026 41.044 108.026 42.2457C108.026 43.4389 108.196 44.5213 108.537 45.4929C108.886 46.4645 109.41 47.2401 110.109 47.8196C110.817 48.3906 111.703 48.6761 112.768 48.6761ZM128.859 45.8381L128.846 40.2514H129.587L136.644 32.3636H142.052L133.371 42.0284H132.413L128.859 45.8381ZM124.64 52V25.8182H129.268V52H124.64ZM136.964 52L130.572 43.0639L133.691 39.804L142.499 52H136.964ZM143.696 52V32.3636H148.324V52H143.696ZM146.023 29.5767C145.29 29.5767 144.659 29.3338 144.131 28.848C143.602 28.3537 143.338 27.7614 143.338 27.071C143.338 26.3722 143.602 25.7798 144.131 25.294C144.659 24.7997 145.29 24.5526 146.023 24.5526C146.764 24.5526 147.395 24.7997 147.915 25.294C148.443 25.7798 148.707 26.3722 148.707 27.071C148.707 27.7614 148.443 28.3537 147.915 28.848C147.395 29.3338 146.764 29.5767 146.023 29.5767ZM160.336 52.3835C158.367 52.3835 156.667 51.9744 155.235 51.1562C153.812 50.3295 152.717 49.1619 151.95 47.6534C151.182 46.1364 150.799 44.3509 150.799 42.2969C150.799 40.277 151.182 38.5043 151.95 36.9787C152.725 35.4446 153.807 34.2514 155.197 33.3991C156.586 32.5384 158.218 32.108 160.093 32.108C161.303 32.108 162.445 32.304 163.519 32.696C164.601 33.0795 165.556 33.6761 166.383 34.4858C167.218 35.2955 167.874 36.3267 168.351 37.5795C168.829 38.8239 169.067 40.3068 169.067 42.0284V43.4474H152.972V40.3281H164.631C164.623 39.4418 164.431 38.6534 164.056 37.9631C163.681 37.2642 163.157 36.7145 162.484 36.3139C161.819 35.9134 161.043 35.7131 160.157 35.7131C159.211 35.7131 158.38 35.9432 157.664 36.4034C156.948 36.8551 156.39 37.4517 155.989 38.1932C155.597 38.9261 155.397 39.7315 155.388 40.6094V43.3324C155.388 44.4744 155.597 45.4545 156.015 46.2727C156.432 47.0824 157.016 47.7045 157.766 48.1392C158.516 48.5653 159.394 48.7784 160.4 48.7784C161.073 48.7784 161.682 48.6847 162.228 48.4972C162.773 48.3011 163.246 48.0156 163.647 47.6406C164.048 47.2656 164.35 46.8011 164.555 46.2472L168.876 46.733C168.603 47.875 168.083 48.8722 167.316 49.7244C166.557 50.5682 165.586 51.2244 164.401 51.6932C163.217 52.1534 161.861 52.3835 160.336 52.3835ZM187.062 37.554L182.844 38.0142C182.724 37.5881 182.516 37.1875 182.217 36.8125C181.927 36.4375 181.535 36.1349 181.041 35.9048C180.547 35.6747 179.942 35.5597 179.226 35.5597C178.263 35.5597 177.453 35.7685 176.797 36.1861C176.149 36.6037 175.829 37.1449 175.838 37.8097C175.829 38.3807 176.038 38.8452 176.464 39.2031C176.899 39.5611 177.615 39.8551 178.612 40.0852L181.962 40.8011C183.82 41.2017 185.2 41.8366 186.104 42.706C187.016 43.5753 187.476 44.7131 187.484 46.1193C187.476 47.3551 187.114 48.446 186.398 49.392C185.69 50.3295 184.706 51.0625 183.445 51.5909C182.183 52.1193 180.734 52.3835 179.098 52.3835C176.695 52.3835 174.76 51.8807 173.294 50.875C171.828 49.8608 170.954 48.4503 170.673 46.6435L175.186 46.2088C175.391 47.0952 175.825 47.7642 176.49 48.2159C177.155 48.6676 178.02 48.8935 179.085 48.8935C180.185 48.8935 181.067 48.6676 181.731 48.2159C182.405 47.7642 182.741 47.206 182.741 46.5412C182.741 45.9787 182.524 45.5142 182.089 45.1477C181.663 44.7812 180.998 44.5 180.095 44.304L176.746 43.6009C174.862 43.2088 173.469 42.5483 172.565 41.6193C171.662 40.6818 171.214 39.4972 171.223 38.0653C171.214 36.8551 171.543 35.8068 172.207 34.9205C172.881 34.0256 173.814 33.3352 175.007 32.8494C176.209 32.3551 177.594 32.108 179.162 32.108C181.463 32.108 183.274 32.598 184.595 33.5781C185.925 34.5582 186.747 35.8835 187.062 37.554Z" fill="black"/>
<rect y="2" width="52" height="54" rx="12" fill="white"/>
<path d="M10 45.24H42V13.24H10V45.24Z" fill="black"/>
</svg>
